<?xml version="1.0" encoding="utf-8"?>
<!-- Generator: Adobe Illustrator 27.6.1, SVG Export Plug-In . SVG Version: 6.00 Build 0)  -->
<svg version="1.1" id="Layer_1" xmlns="http://www.w3.org/2000/svg" xmlns:xlink="http://www.w3.org/1999/xlink" x="0px" y="0px"
	 viewBox="0 0 2489 2500" style="enable-background:new 0 0 2489 2500;" xml:space="preserve">
<style type="text/css">
	.st0{fill:#E0E0E0;}
	.st1{fill:#87EF6A;}
	.st2{fill-rule:evenodd;clip-rule:evenodd;fill:#FFFFFF;}
	.st3{fill:#FFFFFF;}
	.st4{fill:url(#SVGID_1_);}
</style>
<path class="st0" d="M2126.3,363.3C1892.3,129.2,1581.2,0.1,1249.7,0C566.6,0,10.8,555.7,10.5,1238.7
	c-0.1,218.3,57,431.5,165.4,619.3L0.1,2500L657,2327.7c181,98.7,384.8,150.7,592.2,150.8h0.5h0c683,0,1238.9-555.8,1239.2-1238.8
	C2489,908.7,2360.2,597.5,2126.3,363.3L2126.3,363.3z M1249.7,2269.3h-0.4c-184.9-0.1-366.1-49.7-524.2-143.5l-37.6-22.3
	l-389.8,102.2l104.1-379.9l-24.5-39c-103.1-163.9-157.5-353.4-157.5-548C219.9,671.1,682,209.2,1250.1,209.2
	c275.1,0.1,533.7,107.4,728.2,302c194.5,194.6,301.5,453.3,301.4,728.5C2279.4,1807.4,1817.4,2269.3,1249.7,2269.3z"/>
<path class="st1" d="M57,2428.8l167.8-612.6c-103.5-179.3-157.9-382.7-157.9-591C67.1,573.3,597.6,43,1249.4,43
	c316.4,0.1,613.3,123.3,836.5,346.7c223.3,223.5,346.2,520.5,346.1,836.3c-0.3,651.8-530.8,1182.2-1182.5,1182.2c0,0,0,0,0,0h-0.5
	c-197.9-0.1-392.4-49.7-565.1-143.9L57,2428.8L57,2428.8z"/>
<path class="st2" d="M943.5,712.8c-22.9-51-47.1-52-68.9-52.9c-17.8-0.8-38.3-0.7-58.7-0.7c-20.4,0-53.6,7.7-81.6,38.3
	c-28.1,30.6-107.1,104.7-107.1,255.3c0,150.6,109.7,296.1,125,316.6c15.3,20.4,211.7,339.3,522.9,462
	c258.6,102,311.2,81.7,367.3,76.6c56.1-5.1,181.1-74,206.6-145.5c25.5-71.5,25.5-132.7,17.9-145.5c-7.7-12.8-28.1-20.4-58.7-35.7
	c-30.6-15.3-181.1-89.4-209.1-99.6c-28.1-10.2-48.5-15.3-68.9,15.3c-20.4,30.6-79,99.5-96.9,119.9c-17.9,20.5-35.7,23-66.3,7.7
	c-30.6-15.4-129.2-47.6-246.1-151.9c-91-81.1-152.4-181.3-170.3-212c-17.9-30.6-1.9-47.2,13.4-62.5c13.7-13.7,30.6-35.7,45.9-53.6
	c15.3-17.9,20.4-30.6,30.6-51c10.2-20.4,5.1-38.3-2.6-53.6S970.7,773.4,943.5,712.8L943.5,712.8z"/>
<path class="st3" d="M2116.2,359.4c-231.3-231.5-538.8-359-866.5-359.1C574.4,0.2,24.9,549.6,24.6,1224.8
	C24.6,1440.6,81,1651.3,188.2,1837L14.4,2471.5l649.4-170.3c178.9,97.6,380.4,149,585.4,149.1h0.5h0
	c675.1,0,1224.7-549.4,1225-1224.6C2474.7,898.5,2347.4,590.8,2116.2,359.4L2116.2,359.4z M1249.6,2243.5h-0.4
	c-182.7-0.1-361.9-49.2-518.2-141.9l-37.2-22.1l-385.4,101L411.4,1805l-24.2-38.5c-101.9-162.1-155.7-349.4-155.7-541.7
	C231.7,663.6,688.4,207.1,1250,207.1c272,0.1,527.6,106.1,719.8,298.5c192.2,192.4,298,448.1,297.9,720.1
	C2267.6,1786.9,1810.8,2243.5,1249.6,2243.5z"/>
<path class="st0" d="M-475.9,363.3C-709.8,129.2-1021,0.1-1352.5,0c-683.1,0-1238.9,555.7-1239.2,1238.7
	c-0.1,218.3,57,431.5,165.4,619.3l-175.8,641.9l656.9-172.3c181,98.7,384.8,150.7,592.2,150.8h0.5h0
	c683,0,1238.9-555.8,1239.2-1238.8C-113.1,908.7-241.9,597.5-475.9,363.3L-475.9,363.3z M-1352.5,2269.3h-0.4
	c-184.9-0.1-366.1-49.7-524.2-143.5l-37.6-22.3l-389.8,102.2l104.1-379.9l-24.5-39c-103.1-163.9-157.5-353.4-157.5-548
	c0.2-567.7,462.3-1029.6,1030.4-1029.6c275.1,0.1,533.7,107.4,728.2,302c194.5,194.6,301.5,453.3,301.4,728.5
	C-322.7,1807.4-784.8,2269.3-1352.5,2269.3z"/>
<linearGradient id="SVGID_1_" gradientUnits="userSpaceOnUse" x1="-1847.0417" y1="947.7905" x2="-1847.0417" y2="2116.8225" gradientTransform="matrix(2.0408 0 0 -2.0408 2411.7561 4363.0132)">
	<stop  offset="0" style="stop-color:#20B038"/>
	<stop  offset="1" style="stop-color:#60D66A"/>
</linearGradient>
<path class="st4" d="M-2545.2,2428.8l167.8-612.6c-103.5-179.3-157.9-382.7-157.9-591C-2535,573.3-2004.5,43-1352.7,43
	c316.4,0.1,613.3,123.3,836.5,346.7c223.3,223.5,346.2,520.5,346.1,836.3c-0.3,651.8-530.8,1182.2-1182.5,1182.2c0,0,0,0,0,0h-0.5
	c-197.9-0.1-392.4-49.7-565.1-143.9L-2545.2,2428.8L-2545.2,2428.8z"/>
<path class="st2" d="M-1658.7,712.8c-22.9-51-47.1-52-68.9-52.9c-17.8-0.8-38.3-0.7-58.7-0.7c-20.4,0-53.6,7.7-81.6,38.3
	c-28.1,30.6-107.1,104.7-107.1,255.3c0,150.6,109.7,296.1,125,316.6c15.3,20.4,211.7,339.3,522.9,462
	c258.6,102,311.2,81.7,367.3,76.6c56.1-5.1,181.1-74,206.6-145.5c25.5-71.5,25.5-132.7,17.9-145.5c-7.7-12.8-28.1-20.4-58.7-35.7
	c-30.6-15.3-181.1-89.4-209.1-99.6c-28.1-10.2-48.5-15.3-68.9,15.3c-20.4,30.6-79,99.5-96.9,119.9c-17.9,20.5-35.7,23-66.3,7.7
	c-30.6-15.4-129.2-47.6-246.1-151.9c-91-81.1-152.4-181.3-170.3-212c-17.9-30.6-1.9-47.2,13.4-62.5c13.7-13.7,30.6-35.7,45.9-53.6
	c15.3-17.9,20.4-30.6,30.6-51c10.2-20.4,5.1-38.3-2.6-53.6C-1572,924.7-1631.5,773.4-1658.7,712.8L-1658.7,712.8z"/>
<path class="st3" d="M-486,359.4c-231.3-231.5-538.8-359-866.5-359.1c-675.2,0-1224.7,549.3-1225,1224.5
	c-0.1,215.8,56.3,426.5,163.5,612.2l-173.8,634.6l649.4-170.3c178.9,97.6,380.4,149,585.4,149.1h0.5h0
	c675.1,0,1224.7-549.4,1225-1224.6C-127.4,898.5-254.7,590.8-486,359.4L-486,359.4z M-1352.5,2243.5h-0.4
	c-182.7-0.1-361.9-49.2-518.2-141.9l-37.2-22.1l-385.4,101l102.9-375.6l-24.2-38.5c-101.9-162.1-155.7-349.4-155.7-541.7
	c0.2-561.2,456.9-1017.8,1018.6-1017.8c272,0.1,527.6,106.1,719.8,298.5c192.2,192.4,298,448.1,297.9,720.1
	C-334.6,1786.9-791.3,2243.5-1352.5,2243.5z"/>
</svg>
